<mxfile host="app.diagrams.net" agent="Mozilla/5.0 (Macintosh; Intel Mac OS X 10_15_7) AppleWebKit/537.36 (KHTML, like Gecko) Chrome/127.0.0.0 Safari/537.36" version="24.7.6">
  <diagram name="ページ1" id="gllJCA1h7thsUx88sWPD">
    <mxGraphModel dx="1230" dy="783" grid="1" gridSize="10" guides="1" tooltips="1" connect="1" arrows="1" fold="1" page="1" pageScale="1" pageWidth="827" pageHeight="1169" math="0" shadow="0">
      <root>
        <mxCell id="0" />
        <mxCell id="1" parent="0" />
        <mxCell id="AuEK0kCzOa4qLJjdyJ1y-25" value="t" style="group" parent="1" vertex="1" connectable="0">
          <mxGeometry x="430" y="80" width="1700" height="712" as="geometry" />
        </mxCell>
        <mxCell id="AuEK0kCzOa4qLJjdyJ1y-18" value="" style="rounded=0;whiteSpace=wrap;html=1;fillColor=#dae8fc;strokeColor=#6c8ebf;" parent="AuEK0kCzOa4qLJjdyJ1y-25" vertex="1">
          <mxGeometry y="10" width="1700" height="670" as="geometry" />
        </mxCell>
        <mxCell id="AuEK0kCzOa4qLJjdyJ1y-23" value="" style="outlineConnect=0;dashed=0;verticalLabelPosition=bottom;verticalAlign=top;align=center;html=1;shape=mxgraph.aws3.cloud_2;fillColor=#F58534;gradientColor=none;container=1;" parent="AuEK0kCzOa4qLJjdyJ1y-25" vertex="1">
          <mxGeometry x="-15.926605504587156" width="45.50458715596331" height="40" as="geometry">
            <mxRectangle width="50" height="40" as="alternateBounds" />
          </mxGeometry>
        </mxCell>
        <mxCell id="AuEK0kCzOa4qLJjdyJ1y-1" value="Amazon S3" style="sketch=0;outlineConnect=0;fontColor=#232F3E;gradientColor=none;strokeColor=#ffffff;fillColor=#232F3E;dashed=0;verticalLabelPosition=middle;verticalAlign=bottom;align=center;html=1;whiteSpace=wrap;fontSize=10;fontStyle=1;spacing=3;shape=mxgraph.aws4.productIcon;prIcon=mxgraph.aws4.s3;" parent="AuEK0kCzOa4qLJjdyJ1y-25" vertex="1">
          <mxGeometry x="97.83" y="132.5" width="91.01" height="105" as="geometry" />
        </mxCell>
        <mxCell id="AuEK0kCzOa4qLJjdyJ1y-14" style="edgeStyle=orthogonalEdgeStyle;rounded=0;orthogonalLoop=1;jettySize=auto;html=1;" parent="AuEK0kCzOa4qLJjdyJ1y-25" source="AuEK0kCzOa4qLJjdyJ1y-35" target="AuEK0kCzOa4qLJjdyJ1y-1" edge="1">
          <mxGeometry relative="1" as="geometry" />
        </mxCell>
        <mxCell id="AuEK0kCzOa4qLJjdyJ1y-32" value="aws&amp;nbsp;&lt;span style=&quot;background-color: initial;&quot;&gt;cloud watch&lt;br&gt;lambadaのログを管理&lt;/span&gt;" style="outlineConnect=0;dashed=0;verticalLabelPosition=bottom;verticalAlign=top;align=center;html=1;shape=mxgraph.aws3.cloudwatch;fillColor=#759C3E;gradientColor=none;" parent="AuEK0kCzOa4qLJjdyJ1y-25" vertex="1">
          <mxGeometry x="1489.999633027523" y="480" width="93.85321100917432" height="93" as="geometry" />
        </mxCell>
        <mxCell id="AuEK0kCzOa4qLJjdyJ1y-35" value="VPC endpoint" style="sketch=0;outlineConnect=0;fontColor=#232F3E;gradientColor=none;fillColor=#8C4FFF;strokeColor=none;dashed=0;verticalLabelPosition=bottom;verticalAlign=top;align=center;html=1;fontSize=12;fontStyle=0;aspect=fixed;pointerEvents=1;shape=mxgraph.aws4.endpoint;" parent="AuEK0kCzOa4qLJjdyJ1y-25" vertex="1">
          <mxGeometry x="341.2844036697248" y="148" width="74" height="74" as="geometry" />
        </mxCell>
        <mxCell id="AuEK0kCzOa4qLJjdyJ1y-20" value="VPC" style="points=[[0,0],[0.25,0],[0.5,0],[0.75,0],[1,0],[1,0.25],[1,0.5],[1,0.75],[1,1],[0.75,1],[0.5,1],[0.25,1],[0,1],[0,0.75],[0,0.5],[0,0.25]];outlineConnect=0;gradientColor=none;html=1;whiteSpace=wrap;fontSize=12;fontStyle=0;container=1;pointerEvents=0;collapsible=0;recursiveResize=0;shape=mxgraph.aws4.group;grIcon=mxgraph.aws4.group_vpc2;strokeColor=#8C4FFF;fillColor=none;verticalAlign=top;align=left;spacingLeft=30;fontColor=#AAB7B8;dashed=0;" parent="AuEK0kCzOa4qLJjdyJ1y-25" vertex="1">
          <mxGeometry x="318.53" y="50" width="1051.47" height="512" as="geometry" />
        </mxCell>
        <mxCell id="AuEK0kCzOa4qLJjdyJ1y-26" value="Private subnet" style="points=[[0,0],[0.25,0],[0.5,0],[0.75,0],[1,0],[1,0.25],[1,0.5],[1,0.75],[1,1],[0.75,1],[0.5,1],[0.25,1],[0,1],[0,0.75],[0,0.5],[0,0.25]];outlineConnect=0;gradientColor=none;html=1;whiteSpace=wrap;fontSize=12;fontStyle=0;container=1;pointerEvents=0;collapsible=0;recursiveResize=0;shape=mxgraph.aws4.group;grIcon=mxgraph.aws4.group_security_group;grStroke=0;strokeColor=#00A4A6;fillColor=#E6F6F7;verticalAlign=top;align=left;spacingLeft=30;fontColor=#147EBA;dashed=0;" parent="AuEK0kCzOa4qLJjdyJ1y-20" vertex="1">
          <mxGeometry x="341.47" y="40" width="618.53" height="190" as="geometry" />
        </mxCell>
        <mxCell id="AuEK0kCzOa4qLJjdyJ1y-40" value="10.0.1.0/24" style="text;html=1;align=center;verticalAlign=middle;whiteSpace=wrap;rounded=0;" parent="AuEK0kCzOa4qLJjdyJ1y-26" vertex="1">
          <mxGeometry x="10.238532110091743" y="30" width="68.25688073394495" height="30" as="geometry" />
        </mxCell>
        <mxCell id="AuEK0kCzOa4qLJjdyJ1y-39" value="10.0.0.0/16" style="text;html=1;align=center;verticalAlign=middle;whiteSpace=wrap;rounded=0;" parent="AuEK0kCzOa4qLJjdyJ1y-20" vertex="1">
          <mxGeometry x="11.376146788990827" y="30" width="68.25688073394495" height="30" as="geometry" />
        </mxCell>
        <mxCell id="AuEK0kCzOa4qLJjdyJ1y-30" value="Private subnet" style="points=[[0,0],[0.25,0],[0.5,0],[0.75,0],[1,0],[1,0.25],[1,0.5],[1,0.75],[1,1],[0.75,1],[0.5,1],[0.25,1],[0,1],[0,0.75],[0,0.5],[0,0.25]];outlineConnect=0;gradientColor=none;html=1;whiteSpace=wrap;fontSize=12;fontStyle=0;container=1;pointerEvents=0;collapsible=0;recursiveResize=0;shape=mxgraph.aws4.group;grIcon=mxgraph.aws4.group_security_group;grStroke=0;strokeColor=#00A4A6;fillColor=#E6F6F7;verticalAlign=top;align=left;spacingLeft=30;fontColor=#147EBA;dashed=0;" parent="AuEK0kCzOa4qLJjdyJ1y-20" vertex="1">
          <mxGeometry x="341.4675229357797" y="260" width="455.04587155963304" height="170" as="geometry" />
        </mxCell>
        <mxCell id="AuEK0kCzOa4qLJjdyJ1y-42" value="10.0.2.0/24" style="text;html=1;align=center;verticalAlign=middle;whiteSpace=wrap;rounded=0;" parent="AuEK0kCzOa4qLJjdyJ1y-30" vertex="1">
          <mxGeometry x="10.000642201835035" y="30" width="68.25688073394495" height="30" as="geometry" />
        </mxCell>
        <mxCell id="AuEK0kCzOa4qLJjdyJ1y-3" value="AWS Lambda" style="sketch=0;outlineConnect=0;fontColor=#232F3E;gradientColor=none;strokeColor=#ffffff;fillColor=#232F3E;dashed=0;verticalLabelPosition=middle;verticalAlign=bottom;align=center;html=1;whiteSpace=wrap;fontSize=10;fontStyle=1;spacing=3;shape=mxgraph.aws4.productIcon;prIcon=mxgraph.aws4.lambda;" parent="AuEK0kCzOa4qLJjdyJ1y-25" vertex="1">
          <mxGeometry x="850" y="130.75" width="91.01" height="108.5" as="geometry" />
        </mxCell>
        <mxCell id="AuEK0kCzOa4qLJjdyJ1y-16" value="aws open search" style="sketch=0;outlineConnect=0;fontColor=#232F3E;gradientColor=none;fillColor=#8C4FFF;strokeColor=none;dashed=0;verticalLabelPosition=bottom;verticalAlign=top;align=center;html=1;fontSize=12;fontStyle=0;aspect=fixed;pointerEvents=1;shape=mxgraph.aws4.opensearch_service_index;" parent="AuEK0kCzOa4qLJjdyJ1y-25" vertex="1">
          <mxGeometry x="856.5003669724772" y="350" width="78" height="78" as="geometry" />
        </mxCell>
        <mxCell id="AuEK0kCzOa4qLJjdyJ1y-17" style="edgeStyle=orthogonalEdgeStyle;rounded=0;orthogonalLoop=1;jettySize=auto;html=1;" parent="AuEK0kCzOa4qLJjdyJ1y-25" source="AuEK0kCzOa4qLJjdyJ1y-3" target="AuEK0kCzOa4qLJjdyJ1y-16" edge="1">
          <mxGeometry relative="1" as="geometry" />
        </mxCell>
        <mxCell id="AuEK0kCzOa4qLJjdyJ1y-47" style="edgeStyle=orthogonalEdgeStyle;rounded=0;orthogonalLoop=1;jettySize=auto;html=1;" parent="AuEK0kCzOa4qLJjdyJ1y-25" source="AuEK0kCzOa4qLJjdyJ1y-43" target="AuEK0kCzOa4qLJjdyJ1y-35" edge="1">
          <mxGeometry relative="1" as="geometry" />
        </mxCell>
        <mxCell id="AuEK0kCzOa4qLJjdyJ1y-43" value="route table" style="outlineConnect=0;dashed=0;verticalLabelPosition=bottom;verticalAlign=top;align=center;html=1;shape=mxgraph.aws3.route_table;fillColor=#F58536;gradientColor=none;" parent="AuEK0kCzOa4qLJjdyJ1y-25" vertex="1">
          <mxGeometry x="520.0044954128441" y="150.5" width="85.3211009174312" height="69" as="geometry" />
        </mxCell>
        <mxCell id="AuEK0kCzOa4qLJjdyJ1y-44" style="edgeStyle=orthogonalEdgeStyle;rounded=0;orthogonalLoop=1;jettySize=auto;html=1;entryX=1;entryY=0.5;entryDx=0;entryDy=0;entryPerimeter=0;" parent="AuEK0kCzOa4qLJjdyJ1y-25" source="AuEK0kCzOa4qLJjdyJ1y-3" target="AuEK0kCzOa4qLJjdyJ1y-43" edge="1">
          <mxGeometry relative="1" as="geometry" />
        </mxCell>
        <mxCell id="63NPy0ab2EjR-5KexuRM-2" value="VPNは敷居が高いのでEC2による踏み台サーバーで回避" style="text;html=1;align=center;verticalAlign=middle;whiteSpace=wrap;rounded=0;" parent="AuEK0kCzOa4qLJjdyJ1y-25" vertex="1">
          <mxGeometry x="870" y="592" width="490" height="120" as="geometry" />
        </mxCell>
        <mxCell id="63NPy0ab2EjR-5KexuRM-5" value="Amazon EC2" style="sketch=0;outlineConnect=0;fontColor=#232F3E;gradientColor=none;strokeColor=#ffffff;fillColor=#232F3E;dashed=0;verticalLabelPosition=middle;verticalAlign=bottom;align=center;html=1;whiteSpace=wrap;fontSize=10;fontStyle=1;spacing=3;shape=mxgraph.aws4.productIcon;prIcon=mxgraph.aws4.ec2;" parent="AuEK0kCzOa4qLJjdyJ1y-25" vertex="1">
          <mxGeometry x="854.5" y="490" width="80" height="100" as="geometry" />
        </mxCell>
        <mxCell id="63NPy0ab2EjR-5KexuRM-12" style="edgeStyle=orthogonalEdgeStyle;rounded=0;orthogonalLoop=1;jettySize=auto;html=1;" parent="AuEK0kCzOa4qLJjdyJ1y-25" source="63NPy0ab2EjR-5KexuRM-7" target="63NPy0ab2EjR-5KexuRM-11" edge="1">
          <mxGeometry relative="1" as="geometry">
            <Array as="points">
              <mxPoint x="250" y="389" />
              <mxPoint x="250" y="-40" />
              <mxPoint x="1046" y="-40" />
            </Array>
          </mxGeometry>
        </mxCell>
        <mxCell id="63NPy0ab2EjR-5KexuRM-7" value="Amazon API Gateway" style="sketch=0;outlineConnect=0;fontColor=#232F3E;gradientColor=none;strokeColor=#ffffff;fillColor=#232F3E;dashed=0;verticalLabelPosition=middle;verticalAlign=bottom;align=center;html=1;whiteSpace=wrap;fontSize=10;fontStyle=1;spacing=3;shape=mxgraph.aws4.productIcon;prIcon=mxgraph.aws4.api_gateway;" parent="AuEK0kCzOa4qLJjdyJ1y-25" vertex="1">
          <mxGeometry x="103.33000000000004" y="334" width="80" height="110" as="geometry" />
        </mxCell>
        <mxCell id="Dv6KyxEHQmzUEN3-x6PO-2" style="edgeStyle=orthogonalEdgeStyle;rounded=0;orthogonalLoop=1;jettySize=auto;html=1;" edge="1" parent="AuEK0kCzOa4qLJjdyJ1y-25" source="63NPy0ab2EjR-5KexuRM-11" target="Dv6KyxEHQmzUEN3-x6PO-1">
          <mxGeometry relative="1" as="geometry" />
        </mxCell>
        <mxCell id="63NPy0ab2EjR-5KexuRM-11" value="AWS Lambda" style="sketch=0;outlineConnect=0;fontColor=#232F3E;gradientColor=none;strokeColor=#ffffff;fillColor=#232F3E;dashed=0;verticalLabelPosition=middle;verticalAlign=bottom;align=center;html=1;whiteSpace=wrap;fontSize=10;fontStyle=1;spacing=3;shape=mxgraph.aws4.productIcon;prIcon=mxgraph.aws4.lambda;" parent="AuEK0kCzOa4qLJjdyJ1y-25" vertex="1">
          <mxGeometry x="1000" y="130.75" width="91.01" height="108.5" as="geometry" />
        </mxCell>
        <mxCell id="63NPy0ab2EjR-5KexuRM-16" value="OpenSearchから情報を抽出" style="edgeStyle=orthogonalEdgeStyle;rounded=0;orthogonalLoop=1;jettySize=auto;html=1;" parent="AuEK0kCzOa4qLJjdyJ1y-25" source="63NPy0ab2EjR-5KexuRM-13" target="AuEK0kCzOa4qLJjdyJ1y-16" edge="1">
          <mxGeometry relative="1" as="geometry">
            <Array as="points">
              <mxPoint x="1519" y="400" />
            </Array>
          </mxGeometry>
        </mxCell>
        <mxCell id="63NPy0ab2EjR-5KexuRM-13" value="" style="sketch=0;points=[[0,0,0],[0.25,0,0],[0.5,0,0],[0.75,0,0],[1,0,0],[0,1,0],[0.25,1,0],[0.5,1,0],[0.75,1,0],[1,1,0],[0,0.25,0],[0,0.5,0],[0,0.75,0],[1,0.25,0],[1,0.5,0],[1,0.75,0]];outlineConnect=0;fontColor=#232F3E;fillColor=#01A88D;strokeColor=#ffffff;dashed=0;verticalLabelPosition=bottom;verticalAlign=top;align=center;html=1;fontSize=12;fontStyle=0;aspect=fixed;shape=mxgraph.aws4.resourceIcon;resIcon=mxgraph.aws4.bedrock;" parent="AuEK0kCzOa4qLJjdyJ1y-25" vertex="1">
          <mxGeometry x="1480" y="146" width="78" height="78" as="geometry" />
        </mxCell>
        <mxCell id="Dv6KyxEHQmzUEN3-x6PO-3" style="edgeStyle=orthogonalEdgeStyle;rounded=0;orthogonalLoop=1;jettySize=auto;html=1;" edge="1" parent="AuEK0kCzOa4qLJjdyJ1y-25" source="Dv6KyxEHQmzUEN3-x6PO-1" target="63NPy0ab2EjR-5KexuRM-13">
          <mxGeometry relative="1" as="geometry" />
        </mxCell>
        <mxCell id="Dv6KyxEHQmzUEN3-x6PO-1" value="NAT gateway" style="sketch=0;outlineConnect=0;fontColor=#232F3E;gradientColor=none;strokeColor=#232F3E;fillColor=#ffffff;dashed=0;verticalLabelPosition=bottom;verticalAlign=top;align=center;html=1;fontSize=12;fontStyle=0;aspect=fixed;shape=mxgraph.aws4.resourceIcon;resIcon=mxgraph.aws4.nat_gateway;" vertex="1" parent="AuEK0kCzOa4qLJjdyJ1y-25">
          <mxGeometry x="1340" y="155" width="60" height="60" as="geometry" />
        </mxCell>
        <mxCell id="AuEK0kCzOa4qLJjdyJ1y-12" style="edgeStyle=orthogonalEdgeStyle;rounded=0;orthogonalLoop=1;jettySize=auto;html=1;" parent="1" source="AuEK0kCzOa4qLJjdyJ1y-7" target="AuEK0kCzOa4qLJjdyJ1y-1" edge="1">
          <mxGeometry relative="1" as="geometry" />
        </mxCell>
        <mxCell id="AuEK0kCzOa4qLJjdyJ1y-7" value="" style="whiteSpace=wrap;html=1;shape=mxgraph.basic.document" parent="1" vertex="1">
          <mxGeometry x="150" y="240" width="50" height="50" as="geometry" />
        </mxCell>
        <mxCell id="AuEK0kCzOa4qLJjdyJ1y-10" value="ファイルアップロード" style="text;html=1;align=center;verticalAlign=middle;whiteSpace=wrap;rounded=0;" parent="1" vertex="1">
          <mxGeometry x="220" y="280" width="150" height="30" as="geometry" />
        </mxCell>
        <mxCell id="AuEK0kCzOa4qLJjdyJ1y-34" value="" style="points=[[0.35,0,0],[0.98,0.51,0],[1,0.71,0],[0.67,1,0],[0,0.795,0],[0,0.65,0]];verticalLabelPosition=bottom;sketch=0;html=1;verticalAlign=top;aspect=fixed;align=center;pointerEvents=1;shape=mxgraph.cisco19.user;fillColor=#005073;strokeColor=none;" parent="1" vertex="1">
          <mxGeometry x="150" y="170" width="50" height="50" as="geometry" />
        </mxCell>
        <mxCell id="AuEK0kCzOa4qLJjdyJ1y-38" value="&lt;h1 style=&quot;margin-top: 0px;&quot;&gt;VPCエンドポイント&lt;/h1&gt;&lt;div&gt;プライベートサブネット内のリソース（例：Lambda）は、VPCエンドポイントを使用してS3などのAWSサービスに安全にアクセスできる。&lt;br&gt;&lt;/div&gt;&lt;div&gt;これにより、インターネットを経由せずにサービスにアクセスできる。&lt;br&gt;S3はパブリックサービスなので、通常は&lt;span style=&quot;background-color: initial;&quot;&gt;インターネットゲートウェイやNATゲートウェイが必要になる。&lt;br&gt;上記を使わないで、VPCエンドポイントで解決することが可能。&lt;/span&gt;&lt;/div&gt;" style="text;html=1;whiteSpace=wrap;overflow=hidden;rounded=0;" parent="1" vertex="1">
          <mxGeometry x="430" y="890" width="490" height="150" as="geometry" />
        </mxCell>
        <mxCell id="AuEK0kCzOa4qLJjdyJ1y-56" value="ダッシュボードへアクセス" style="edgeStyle=orthogonalEdgeStyle;rounded=0;orthogonalLoop=1;jettySize=auto;html=1;" parent="1" source="AuEK0kCzOa4qLJjdyJ1y-55" target="AuEK0kCzOa4qLJjdyJ1y-16" edge="1">
          <mxGeometry relative="1" as="geometry">
            <Array as="points">
              <mxPoint x="1326" y="630" />
              <mxPoint x="1326" y="630" />
            </Array>
          </mxGeometry>
        </mxCell>
        <mxCell id="AuEK0kCzOa4qLJjdyJ1y-55" value="管理者" style="points=[[0.35,0,0],[0.98,0.51,0],[1,0.71,0],[0.67,1,0],[0,0.795,0],[0,0.65,0]];verticalLabelPosition=bottom;sketch=0;html=1;verticalAlign=top;aspect=fixed;align=center;pointerEvents=1;shape=mxgraph.cisco19.user;fillColor=#005073;strokeColor=none;" parent="1" vertex="1">
          <mxGeometry x="1300.5" y="870" width="50" height="50" as="geometry" />
        </mxCell>
        <mxCell id="63NPy0ab2EjR-5KexuRM-10" value="bot活用" style="edgeStyle=orthogonalEdgeStyle;rounded=0;orthogonalLoop=1;jettySize=auto;html=1;" parent="1" source="63NPy0ab2EjR-5KexuRM-9" target="63NPy0ab2EjR-5KexuRM-7" edge="1">
          <mxGeometry relative="1" as="geometry" />
        </mxCell>
        <mxCell id="63NPy0ab2EjR-5KexuRM-9" value="" style="points=[[0.35,0,0],[0.98,0.51,0],[1,0.71,0],[0.67,1,0],[0,0.795,0],[0,0.65,0]];verticalLabelPosition=bottom;sketch=0;html=1;verticalAlign=top;aspect=fixed;align=center;pointerEvents=1;shape=mxgraph.cisco19.user;fillColor=#005073;strokeColor=none;" parent="1" vertex="1">
          <mxGeometry x="160" y="444" width="50" height="50" as="geometry" />
        </mxCell>
      </root>
    </mxGraphModel>
  </diagram>
</mxfile>
